REM DIRINDEX 1\2\4\8,1\2\4\9,1\2\4\10,1\2\5\11,1\2\5\12,1\2\5\13,1\2\5\14,1\2\5\15,1\3\6\16,1\3\6\17,1\3\6\18,1\3\7\19,1\3\7\20,1\3\7\21,1\3\7\22,1\3\7\23
REM DIRNAME "folder01","folder02","folder03","folder04","folder05","folder06","folder07","folder08","folder09","folder10","folder11","folder12","folder13","folder14","folder15","folder16","folder17","folder18","folder19","folder20","folder21","folder22","folder23"
TITLE ""
FILE "LR_black_phrase_E_B04.mp3" MP3
  TRACK 01 AUDIO
    TITLE "0:"
    INDEX 01 00:00:00
  TRACK 02 AUDIO
    TITLE "16:cjc171_09171"
    INDEX 01 00:00:14
  TRACK 03 AUDIO
    TITLE "0:"
    INDEX 01 00:01:37
  TRACK 04 AUDIO
    TITLE "17:cjc171_09172"
    INDEX 01 00:01:67
  TRACK 05 AUDIO
    TITLE "0:"
    INDEX 01 00:04:22
  TRACK 06 AUDIO
    TITLE "18:cjc171_09173"
    INDEX 01 00:05:02
  TRACK 07 AUDIO
    TITLE "0:"
    INDEX 01 00:07:34
  TRACK 08 AUDIO
    TITLE "16:cjc171_09174"
    INDEX 01 00:08:37
  TRACK 09 AUDIO
    TITLE "0:"
    INDEX 01 00:09:70
  TRACK 10 AUDIO
    TITLE "17:cjc171_09175"
    INDEX 01 00:10:24
  TRACK 11 AUDIO
    TITLE "0:"
    INDEX 01 00:13:01
  TRACK 12 AUDIO
    TITLE "18:cjc171_09176"
    INDEX 01 00:13:54
  TRACK 13 AUDIO
    TITLE "0:"
    INDEX 01 00:16:29
  TRACK 14 AUDIO
    TITLE "16:cjc171_09177"
    INDEX 01 00:17:34
  TRACK 15 AUDIO
    TITLE "0:"
    INDEX 01 00:18:57
  TRACK 16 AUDIO
    TITLE "17:cjc171_09178"
    INDEX 01 00:19:15
  TRACK 17 AUDIO
    TITLE "0:"
    INDEX 01 00:21:24
  TRACK 18 AUDIO
    TITLE "18:cjc171_09179"
    INDEX 01 00:22:02
  TRACK 19 AUDIO
    TITLE "0:"
    INDEX 01 00:24:15
  TRACK 20 AUDIO
    TITLE "16:cjc171_09180"
    INDEX 01 00:25:12
  TRACK 21 AUDIO
    TITLE "0:"
    INDEX 01 00:26:12
  TRACK 22 AUDIO
    TITLE "17:cjc171_09181"
    INDEX 01 00:26:41
  TRACK 23 AUDIO
    TITLE "0:"
    INDEX 01 00:28:65
  TRACK 24 AUDIO
    TITLE "18:cjc171_09182"
    INDEX 01 00:29:39
  TRACK 25 AUDIO
    TITLE "0:"
    INDEX 01 00:31:62
  TRACK 26 AUDIO
    TITLE "16:cjc171_09183"
    INDEX 01 00:32:57
  TRACK 27 AUDIO
    TITLE "0:"
    INDEX 01 00:33:72
  TRACK 28 AUDIO
    TITLE "17:cjc171_09184"
    INDEX 01 00:34:17
  TRACK 29 AUDIO
    TITLE "0:"
    INDEX 01 00:37:29
  TRACK 30 AUDIO
    TITLE "18:cjc171_09185"
    INDEX 01 00:38:01
  TRACK 31 AUDIO
    TITLE "0:"
    INDEX 01 00:41:11
  TRACK 32 AUDIO
    TITLE "16:cjc171_09186"
    INDEX 01 00:42:07
  TRACK 33 AUDIO
    TITLE "0:"
    INDEX 01 00:43:22
  TRACK 34 AUDIO
    TITLE "17:cjc171_09187"
    INDEX 01 00:43:45
  TRACK 35 AUDIO
    TITLE "0:"
    INDEX 01 00:45:72
  TRACK 36 AUDIO
    TITLE "18:cjc171_09188"
    INDEX 01 00:46:46
  TRACK 37 AUDIO
    TITLE "0:"
    INDEX 01 00:48:70
  TRACK 38 AUDIO
    TITLE "16:cjc171_09189"
    INDEX 01 00:49:71
  TRACK 39 AUDIO
    TITLE "0:"
    INDEX 01 00:51:29
  TRACK 40 AUDIO
    TITLE "17:cjc171_09190"
    INDEX 01 00:51:59
  TRACK 41 AUDIO
    TITLE "0:"
    INDEX 01 00:54:28
  TRACK 42 AUDIO
    TITLE "18:cjc171_09191"
    INDEX 01 00:55:09
  TRACK 43 AUDIO
    TITLE "0:"
    INDEX 01 00:57:51
  TRACK 44 AUDIO
    TITLE "16:cjc171_09192"
    INDEX 01 00:58:57
  TRACK 45 AUDIO
    TITLE "0:"
    INDEX 01 00:59:72
  TRACK 46 AUDIO
    TITLE "17:cjc171_09193"
    INDEX 01 01:00:26
  TRACK 47 AUDIO
    TITLE "0:"
    INDEX 01 01:02:56
  TRACK 48 AUDIO
    TITLE "18:cjc171_09194"
    INDEX 01 01:03:36
  TRACK 49 AUDIO
    TITLE "0:"
    INDEX 01 01:05:67
  TRACK 50 AUDIO
    TITLE "16:cjc171_09195"
    INDEX 01 01:06:72
  TRACK 51 AUDIO
    TITLE "0:"
    INDEX 01 01:08:20
  TRACK 52 AUDIO
    TITLE "17:cjc171_09196"
    INDEX 01 01:08:43
  TRACK 53 AUDIO
    TITLE "0:"
    INDEX 01 01:10:32
  TRACK 54 AUDIO
    TITLE "18:cjc171_09197"
    INDEX 01 01:11:08
  TRACK 55 AUDIO
    TITLE "0:"
    INDEX 01 01:12:72
  TRACK 56 AUDIO
    TITLE "16:cjc171_09198"
    INDEX 01 01:13:72
  TRACK 57 AUDIO
    TITLE "0:"
    INDEX 01 01:15:14
  TRACK 58 AUDIO
    TITLE "17:cjc171_09199"
    INDEX 01 01:15:39
  TRACK 59 AUDIO
    TITLE "0:"
    INDEX 01 01:17:48
  TRACK 60 AUDIO
    TITLE "18:cjc171_09200"
    INDEX 01 01:18:22
  TRACK 61 AUDIO
    TITLE "0:"
    INDEX 01 01:20:31
  TRACK 62 AUDIO
    TITLE "16:cjc171_09201"
    INDEX 01 01:21:26
  TRACK 63 AUDIO
    TITLE "0:"
    INDEX 01 01:22:34
  TRACK 64 AUDIO
    TITLE "17:cjc171_09202"
    INDEX 01 01:22:57
  TRACK 65 AUDIO
    TITLE "0:"
    INDEX 01 01:27:47
  TRACK 66 AUDIO
    TITLE "18:cjc171_09203"
    INDEX 01 01:28:15
  TRACK 67 AUDIO
    TITLE "0:"
    INDEX 01 01:33:04
  TRACK 68 AUDIO
    TITLE "16:cjc171_09204"
    INDEX 01 01:33:73
  TRACK 69 AUDIO
    TITLE "0:"
    INDEX 01 01:35:07
  TRACK 70 AUDIO
    TITLE "17:cjc171_09205"
    INDEX 01 01:35:28
  TRACK 71 AUDIO
    TITLE "0:"
    INDEX 01 01:37:53
  TRACK 72 AUDIO
    TITLE "18:cjc171_09206"
    INDEX 01 01:38:23
  TRACK 73 AUDIO
    TITLE "0:"
    INDEX 01 01:40:47
  TRACK 74 AUDIO
    TITLE "16:cjc171_09207"
    INDEX 01 01:41:47
  TRACK 75 AUDIO
    TITLE "0:"
    INDEX 01 01:42:72
  TRACK 76 AUDIO
    TITLE "17:cjc171_09208"
    INDEX 01 01:43:24
  TRACK 77 AUDIO
    TITLE "0:"
    INDEX 01 01:45:68
  TRACK 78 AUDIO
    TITLE "18:cjc171_09209"
    INDEX 01 01:46:44
  TRACK 79 AUDIO
    TITLE "0:"
    INDEX 01 01:49:13
  TRACK 80 AUDIO
    TITLE "16:cjc171_09210"
    INDEX 01 01:50:14
  TRACK 81 AUDIO
    TITLE "0:"
    INDEX 01 01:51:37
  TRACK 82 AUDIO
    TITLE "17:cjc171_09211"
    INDEX 01 01:51:69
  TRACK 83 AUDIO
    TITLE "0:"
    INDEX 01 01:53:64
  TRACK 84 AUDIO
    TITLE "18:cjc171_09212"
    INDEX 01 01:54:45
  TRACK 85 AUDIO
    TITLE "0:"
    INDEX 01 01:56:40
  TRACK 86 AUDIO
    TITLE "16:cjc171_09213"
    INDEX 01 01:57:42
  TRACK 87 AUDIO
    TITLE "0:"
    INDEX 01 01:58:75
  TRACK 88 AUDIO
    TITLE "17:cjc171_09214"
    INDEX 01 01:59:29
  TRACK 89 AUDIO
    TITLE "0:"
    INDEX 01 02:01:12
  TRACK 90 AUDIO
    TITLE "18:cjc171_09215"
    INDEX 01 02:01:67
  TRACK 91 AUDIO
    TITLE "0:"
    INDEX 01 02:03:50
  TRACK 92 AUDIO
    TITLE "16:cjc171_09216"
    INDEX 01 02:04:50
  TRACK 93 AUDIO
    TITLE "0:"
    INDEX 01 02:06:02
  TRACK 94 AUDIO
    TITLE "17:cjc171_09217"
    INDEX 01 02:06:23
  TRACK 95 AUDIO
    TITLE "0:"
    INDEX 01 02:09:06
  TRACK 96 AUDIO
    TITLE "18:cjc171_09218"
    INDEX 01 02:09:49
  TRACK 97 AUDIO
    TITLE "0:"
    INDEX 01 02:12:34
  TRACK 98 AUDIO
    TITLE "16:cjc171_09219"
    INDEX 01 02:13:27
  TRACK 99 AUDIO
    TITLE "0:"
    INDEX 01 02:14:62
  TRACK 100 AUDIO
    TITLE "17:cjc171_09220"
    INDEX 01 02:15:06
  TRACK 101 AUDIO
    TITLE "0:"
    INDEX 01 02:17:43
  TRACK 102 AUDIO
    TITLE "18:cjc171_09221"
    INDEX 01 02:18:13
  TRACK 103 AUDIO
    TITLE "0:"
    INDEX 01 02:20:47
  TRACK 104 AUDIO
    TITLE "16:cjc171_09222"
    INDEX 01 02:21:44
  TRACK 105 AUDIO
    TITLE "0:"
    INDEX 01 02:22:59
  TRACK 106 AUDIO
    TITLE "17:cjc171_09223"
    INDEX 01 02:23:04
  TRACK 107 AUDIO
    TITLE "0:"
    INDEX 01 02:24:64
  TRACK 108 AUDIO
    TITLE "18:cjc171_09224"
    INDEX 01 02:25:36
  TRACK 109 AUDIO
    TITLE "0:"
    INDEX 01 02:27:21
  TRACK 110 AUDIO
    TITLE "16:cjc171_09225"
    INDEX 01 02:28:25
  TRACK 111 AUDIO
    TITLE "0:"
    INDEX 01 02:29:34
  TRACK 112 AUDIO
    TITLE "17:cjc171_09226"
    INDEX 01 02:29:61
  TRACK 113 AUDIO
    TITLE "0:"
    INDEX 01 02:32:13
  TRACK 114 AUDIO
    TITLE "18:cjc171_09227"
    INDEX 01 02:32:68
  TRACK 115 AUDIO
    TITLE "0:"
    INDEX 01 02:35:17
  TRACK 116 AUDIO
    TITLE "16:cjc171_09228"
    INDEX 01 02:36:22
  TRACK 117 AUDIO
    TITLE "0:"
    INDEX 01 02:37:37
  TRACK 118 AUDIO
    TITLE "17:cjc171_09229"
    INDEX 01 02:37:67
  TRACK 119 AUDIO
    TITLE "0:"
    INDEX 01 02:40:02
  TRACK 120 AUDIO
    TITLE "18:cjc171_09230"
    INDEX 01 02:40:57
  TRACK 121 AUDIO
    TITLE "0:"
    INDEX 01 02:42:68
  TRACK 122 AUDIO
    TITLE "16:cjc171_09231"
    INDEX 01 02:43:71
  TRACK 123 AUDIO
    TITLE "0:"
    INDEX 01 02:45:10
  TRACK 124 AUDIO
    TITLE "17:cjc171_09232"
    INDEX 01 02:45:37
  TRACK 125 AUDIO
    TITLE "0:"
    INDEX 01 02:47:63
  TRACK 126 AUDIO
    TITLE "18:cjc171_09233"
    INDEX 01 02:48:45
  TRACK 127 AUDIO
    TITLE "0:"
    INDEX 01 02:50:71
  TRACK 128 AUDIO
    TITLE "16:cjc171_09234"
    INDEX 01 02:51:73
  TRACK 129 AUDIO
    TITLE "0:"
    INDEX 01 02:53:27
  TRACK 130 AUDIO
    TITLE "17:cjc171_09235"
    INDEX 01 02:53:44
  TRACK 131 AUDIO
    TITLE "0:"
    INDEX 01 02:56:09
  TRACK 132 AUDIO
    TITLE "18:cjc171_09236"
    INDEX 01 02:56:54
  TRACK 133 AUDIO
    TITLE "0:"
    INDEX 01 02:59:19
  TRACK 134 AUDIO
    TITLE "16:cjc171_09237"
    INDEX 01 03:00:17
  TRACK 135 AUDIO
    TITLE "0:"
    INDEX 01 03:01:22
  TRACK 136 AUDIO
    TITLE "17:cjc171_09238"
    INDEX 01 03:01:48
  TRACK 137 AUDIO
    TITLE "0:"
    INDEX 01 03:03:56
  TRACK 138 AUDIO
    TITLE "18:cjc171_09239"
    INDEX 01 03:04:34
  TRACK 139 AUDIO
    TITLE "0:"
    INDEX 01 03:06:45
  TRACK 140 AUDIO
    TITLE "16:cjc171_09240"
    INDEX 01 03:07:50
  TRACK 141 AUDIO
    TITLE "0:"
    INDEX 01 03:08:65
  TRACK 142 AUDIO
    TITLE "17:cjc171_09241"
    INDEX 01 03:09:10
  TRACK 143 AUDIO
    TITLE "0:"
    INDEX 01 03:11:38
  TRACK 144 AUDIO
    TITLE "18:cjc171_09242"
    INDEX 01 03:12:10
  TRACK 145 AUDIO
    TITLE "0:"
    INDEX 01 03:14:37
  TRACK 146 AUDIO
    TITLE "16:cjc171_09243"
    INDEX 01 03:15:42
  TRACK 147 AUDIO
    TITLE "0:"
    INDEX 01 03:16:41
  TRACK 148 AUDIO
    TITLE "17:cjc171_09244"
    INDEX 01 03:16:73
  TRACK 149 AUDIO
    TITLE "0:"
    INDEX 01 03:18:62
  TRACK 150 AUDIO
    TITLE "18:cjc171_09245"
    INDEX 01 03:19:40
  TRACK 151 AUDIO
    TITLE "0:"
    INDEX 01 03:21:29
  TRACK 152 AUDIO
    TITLE "16:cjc171_09246"
    INDEX 01 03:22:32
  TRACK 153 AUDIO
    TITLE "0:"
    INDEX 01 03:23:59
  TRACK 154 AUDIO
    TITLE "17:cjc171_09247"
    INDEX 01 03:24:15
  TRACK 155 AUDIO
    TITLE "0:"
    INDEX 01 03:26:22
  TRACK 156 AUDIO
    TITLE "18:cjc171_09248"
    INDEX 01 03:27:02
  TRACK 157 AUDIO
    TITLE "0:"
    INDEX 01 03:29:11
  TRACK 158 AUDIO
    TITLE "16:cjc171_09249"
    INDEX 01 03:30:14
  TRACK 159 AUDIO
    TITLE "0:"
    INDEX 01 03:31:35
  TRACK 160 AUDIO
    TITLE "17:cjc171_09250"
    INDEX 01 03:31:63
  TRACK 161 AUDIO
    TITLE "0:"
    INDEX 01 03:33:54
  TRACK 162 AUDIO
    TITLE "18:cjc171_09251"
    INDEX 01 03:34:33
  TRACK 163 AUDIO
    TITLE "0:"
    INDEX 01 03:36:24
  TRACK 164 AUDIO
    TITLE "16:cjc171_09252"
    INDEX 01 03:37:22
  TRACK 165 AUDIO
    TITLE "0:"
    INDEX 01 03:38:35
  TRACK 166 AUDIO
    TITLE "17:cjc171_09253"
    INDEX 01 03:38:63
  TRACK 167 AUDIO
    TITLE "0:"
    INDEX 01 03:41:43
  TRACK 168 AUDIO
    TITLE "18:cjc171_09254"
    INDEX 01 03:42:15
  TRACK 169 AUDIO
    TITLE "0:"
    INDEX 01 03:44:71
  TRACK 170 AUDIO
    TITLE "16:cjc171_09255"
    INDEX 01 03:45:69
  TRACK 171 AUDIO
    TITLE "0:"
    INDEX 01 03:47:03
  TRACK 172 AUDIO
    TITLE "17:cjc171_09256"
    INDEX 01 03:47:24
  TRACK 173 AUDIO
    TITLE "0:"
    INDEX 01 03:49:35
  TRACK 174 AUDIO
    TITLE "18:cjc171_09257"
    INDEX 01 03:50:05
  TRACK 175 AUDIO
    TITLE "0:"
    INDEX 01 03:52:14
  TRACK 176 AUDIO
    TITLE "16:cjc171_09258"
    INDEX 01 03:53:09
  TRACK 177 AUDIO
    TITLE "0:"
    INDEX 01 03:54:13
  TRACK 178 AUDIO
    TITLE "17:cjc171_09259"
    INDEX 01 03:54:28
  TRACK 179 AUDIO
    TITLE "0:"
    INDEX 01 03:56:35
  TRACK 180 AUDIO
    TITLE "18:cjc171_09260"
    INDEX 01 03:57:03
  TRACK 181 AUDIO
    TITLE "0:"
    INDEX 01 03:59:10
